# xmcd
#
# Track frame offsets: 
#        150
#        11590
#        23738
#        35680
#        46408
#        58848
#        66918
#        78688
#        94590
#        108368
#        122108
#
# Disc length: 1789 seconds
#
# Revision: 0
# Processed by: cddbd v1.4PL0 Copyright (c) Steve Scherf et al.
# Submitted via: ExactAudioCopy v0.95a3
#
DISCID=9106fb0b
DTITLE=Doodoo Wah - DOODOO WAH
DYEAR=1991
DGENRE=Humour
TTITLE0=Since My Baby Turned Gay
TTITLE1=Homegrown Tomaters
TTITLE2=B.A.R.F. Construction
TTITLE3=Doncha Bitch At Me
TTITLE4=Odor in the Court
TTITLE5=I Quit
TTITLE6=Birthday Every Day
TTITLE7=Proposition 103
TTITLE8=Alimony (Sally Honey Keeps Me Thinking of You)
TTITLE9=Men's Crisis Center
TTITLE10=We're All Workin' for the Japanese
EXTD=Ballum Rancum Records in Columbia Georgia\n1991\n\nProduced by Do
EXTD=odoo Wah who are\nRon DeLacy and Dave Cavanagh\n\n10 tunes writte
EXTD=n by Ron DeLacy\n"Homegrown Tomatoes"  by Guy Clark\n\nRecorded a
EXTD=t Small D.O.G. Productions, Inc. in Sonora, Ca.  and\nBludbird Ca
EXTD=fe in Nashville, Tennessee\n
EXTT0=
EXTT1=
EXTT2=
EXTT3=
EXTT4=
EXTT5=
EXTT6=
EXTT7=
EXTT8=
EXTT9=
EXTT10=
PLAYORDER=
